ply
format ascii 1.0
comment VCGLIB generated
element vertex 804
property float x
property float y
property float z
element face 840
property list uchar int vertex_indices
end_header
0.242528 0.000329 -0.016893 
0.250375 0.000329 -0.00929 
0.256795 0.000329 -0.00307 
0.175952 0.000329 -0.015498 
0.190218 0.000329 -0.015498 
0.204485 0.000329 -0.015498 
0.228262 0.000329 -0.016449 
0.227073 0.000329 -0.015736 
0.223507 0.000329 -0.015498 
0.228262 0.000329 -0.020254 
0.228262 0.000329 -0.023107 
0.228262 0.000329 -0.02596 
0.231115 0.000329 -0.027951 
0.228975 0.000329 -0.029787 
0.228262 0.000329 -0.029765 
0.140333 0.000329 -0.062124 
0.145304 0.000329 -0.047602 
0.148451 0.000329 -0.034972 
0.15693 0.000329 -0.015498 
0.153177 0.000329 -0.016472 
0.15143 0.000329 -0.019393 
0.019383 0.000329 -0.151575 
0.016259 0.000329 -0.153424 
0.015217 0.000329 -0.157211 
0.015217 0.000329 -0.204766 
0.015217 0.000329 -0.190499 
0.015217 0.000329 -0.176233 
0.015217 0.000329 -0.223787 
0.015455 0.000329 -0.227354 
0.016169 0.000329 -0.228543 
0.02568 0.000329 -0.228543 
0.022826 0.000329 -0.228543 
0.019973 0.000329 -0.228543 
0.029484 0.000329 -0.228543 
0.029508 0.000329 -0.229256 
0.02768 0.000329 -0.231396 
0.002882 0.000329 -0.257076 
0.009081 0.000329 -0.250656 
0.016658 0.000329 -0.242809 
0.122755 0.000329 -0.092843 
0.110206 0.000329 -0.107339 
0.095947 0.000329 -0.120328 
0.036045 0.000329 -0.148055 
0.049454 0.000329 -0.144468 
0.064687 0.000329 -0.138989 
-0.242528 0.000329 -0.016893 
-0.250375 0.000329 -0.00929 
-0.256795 0.000329 -0.00307 
-0.175952 0.000329 -0.015498 
-0.190218 0.000329 -0.015498 
-0.204485 0.000329 -0.015498 
-0.228262 0.000329 -0.016449 
-0.227073 0.000329 -0.015736 
-0.223507 0.000329 -0.015498 
-0.228262 0.000329 -0.020254 
-0.228262 0.000329 -0.023107 
-0.228262 0.000329 -0.02596 
-0.231115 0.000329 -0.027951 
-0.228975 0.000329 -0.029787 
-0.228262 0.000329 -0.029765 
-0.140333 0.000329 -0.062124 
-0.145304 0.000329 -0.047602 
-0.148451 0.000329 -0.034972 
-0.15693 0.000329 -0.015498 
-0.153177 0.000329 -0.016472 
-0.15143 0.000329 -0.019393 
-0.019383 0.000329 -0.151575 
-0.016259 0.000329 -0.153424 
-0.015217 0.000329 -0.157211 
-0.015217 0.000329 -0.204766 
-0.015217 0.000329 -0.190499 
-0.015217 0.000329 -0.176233 
-0.015217 0.000329 -0.223787 
-0.015455 0.000329 -0.227354 
-0.016169 0.000329 -0.228543 
-0.02568 0.000329 -0.228543 
-0.022826 0.000329 -0.228543 
-0.019973 0.000329 -0.228543 
-0.029484 0.000329 -0.228543 
-0.029508 0.000329 -0.229256 
-0.02768 0.000329 -0.231396 
-0.002882 0.000329 -0.257076 
-0.009081 0.000329 -0.250656 
-0.016658 0.000329 -0.242809 
-0.122755 0.000329 -0.092843 
-0.110206 0.000329 -0.107339 
-0.095947 0.000329 -0.120328 
-0.036045 0.000329 -0.148055 
-0.049454 0.000329 -0.144468 
-0.064687 0.000329 -0.138989 
0.242528 0.000329 0.016331 
0.250375 0.000329 0.008729 
0.256795 0.000329 0.002508 
0.175952 0.000329 0.014937 
0.190218 0.000329 0.014937 
0.204485 0.000329 0.014937 
0.228262 0.000329 0.015888 
0.227073 0.000329 0.015174 
0.223507 0.000329 0.014937 
0.228262 0.000329 0.019692 
0.228262 0.000329 0.022545 
0.228262 0.000329 0.025399 
0.231115 0.000329 0.027389 
0.228975 0.000329 0.029225 
0.228262 0.000329 0.029203 
0.140333 0.000329 0.061563 
0.145304 0.000329 0.04704 
0.148451 0.000329 0.03441 
0.15693 0.000329 0.014937 
0.153177 0.000329 0.01591 
0.15143 0.000329 0.018831 
0.019383 0.000329 0.151014 
0.016259 0.000329 0.152863 
0.015217 0.000329 0.156649 
0.015217 0.000329 0.204204 
0.015217 0.000329 0.189937 
0.015217 0.000329 0.175671 
0.015217 0.000329 0.223226 
0.015455 0.000329 0.226792 
0.016169 0.000329 0.227981 
0.02568 0.000329 0.227981 
0.022826 0.000329 0.227981 
0.019973 0.000329 0.227981 
0.029484 0.000329 0.227981 
0.029508 0.000329 0.228694 
0.02768 0.000329 0.230834 
0.002882 0.000329 0.256514 
0.009081 0.000329 0.250094 
0.016658 0.000329 0.242247 
0.122755 0.000329 0.092281 
0.110206 0.000329 0.106777 
0.095947 0.000329 0.119766 
0.036045 0.000329 0.147493 
0.049454 0.000329 0.143906 
0.064687 0.000329 0.138427 
-0.242528 0.000329 0.016331 
-0.250375 0.000329 0.008729 
-0.256795 0.000329 0.002508 
-0.175952 0.000329 0.014937 
-0.190218 0.000329 0.014937 
-0.204485 0.000329 0.014937 
-0.228262 0.000329 0.015888 
-0.227073 0.000329 0.015174 
-0.223507 0.000329 0.014937 
-0.228262 0.000329 0.019692 
-0.228262 0.000329 0.022545 
-0.228262 0.000329 0.025399 
-0.231115 0.000329 0.027389 
-0.228975 0.000329 0.029225 
-0.228262 0.000329 0.029203 
-0.140333 0.000329 0.061563 
-0.145304 0.000329 0.04704 
-0.148451 0.000329 0.03441 
-0.15693 0.000329 0.014937 
-0.153177 0.000329 0.01591 
-0.15143 0.000329 0.018831 
-0.019383 0.000329 0.151014 
-0.016259 0.000329 0.152863 
-0.015217 0.000329 0.156649 
-0.015217 0.000329 0.204204 
-0.015217 0.000329 0.189937 
-0.015217 0.000329 0.175671 
-0.015217 0.000329 0.223226 
-0.015455 0.000329 0.226792 
-0.016169 0.000329 0.227981 
-0.02568 0.000329 0.227981 
-0.022826 0.000329 0.227981 
-0.019973 0.000329 0.227981 
-0.029484 0.000329 0.227981 
-0.029508 0.000329 0.228694 
-0.02768 0.000329 0.230834 
-0.002882 0.000329 0.256514 
-0.009081 0.000329 0.250094 
-0.016658 0.000329 0.242247 
-0.122755 0.000329 0.092281 
-0.110206 0.000329 0.106777 
-0.095947 0.000329 0.119766 
-0.036045 0.000329 0.147493 
-0.049454 0.000329 0.143906 
-0.064687 0.000329 0.138427 
0.132996 0.000329 -0.077539 
0.025631 0.000329 -0.150255 
0.164063 0.000329 -0.015498 
0.228262 0.000329 -0.017876 
0.235395 0.000329 -0.023804 
0.259648 0.000329 -0.000305 
0.015217 0.000329 -0.216654 
0.028057 0.000329 -0.228543 
0.000126 0.000329 -0.259929 
0.216373 0.000329 -0.015498 
0.228262 0.000329 -0.028338 
0.150313 0.000329 -0.025235 
0.015217 0.000329 -0.164344 
0.017595 0.000329 -0.228543 
0.023547 0.000329 -0.235676 
0.080575 0.000329 -0.131111 
-0.132996 0.000329 -0.077539 
-0.025631 0.000329 -0.150255 
-0.164063 0.000329 -0.015498 
-0.228262 0.000329 -0.017876 
-0.235395 0.000329 -0.023804 
-0.259648 0.000329 -0.000305 
-0.015217 0.000329 -0.216654 
-0.028057 0.000329 -0.228543 
-0.000126 0.000329 -0.259929 
-0.216373 0.000329 -0.015498 
-0.228262 0.000329 -0.028338 
-0.150313 0.000329 -0.025235 
-0.015217 0.000329 -0.164344 
-0.017595 0.000329 -0.228543 
-0.023547 0.000329 -0.235676 
-0.080575 0.000329 -0.131111 
0.132996 0.000329 0.076977 
0.025631 0.000329 0.149693 
0.164063 0.000329 0.014937 
0.228262 0.000329 0.017314 
0.235395 0.000329 0.023243 
0.259648 0.000329 -0.000256 
0.015217 0.000329 0.216092 
0.028057 0.000329 0.227981 
0.000126 0.000329 0.259367 
0.216373 0.000329 0.014937 
0.228262 0.000329 0.027776 
0.150313 0.000329 0.024673 
0.015217 0.000329 0.163782 
0.017595 0.000329 0.227981 
0.023547 0.000329 0.235114 
0.080575 0.000329 0.130549 
-0.132996 0.000329 0.076977 
-0.025631 0.000329 0.149693 
-0.164063 0.000329 0.014937 
-0.228262 0.000329 0.017314 
-0.235395 0.000329 0.023243 
-0.259648 0.000329 -0.000256 
-0.015217 0.000329 0.216092 
-0.028057 0.000329 0.227981 
-0.000126 0.000329 0.259367 
-0.216373 0.000329 0.014937 
-0.228262 0.000329 0.027776 
-0.150313 0.000329 0.024673 
-0.015217 0.000329 0.163782 
-0.017595 0.000329 0.227981 
-0.023547 0.000329 0.235114 
-0.080575 0.000329 0.130549 
-0.039458 0.177413 0.011122 
-0.040759 0.184721 0.010326 
-0.043673 0.201289 0.039928 
-0.041863 0.191269 0.035168 
-0.045436 0.21125 0.047145 
-0.044196 0.204342 0.049287 
-0.046568 0.21833 0.081658 
-0.042502 0.195386 0.072592 
-0.043058 0.197914 0.021946 
-0.043877 0.202429 0.017535 
-0.043941 0.202975 0.033587 
-0.044964 0.208622 0.032134 
-0.044001 0.203141 0.043789 
-0.04069 0.184699 0.038644 
-0.018829 0.075455 0.019863 
-0.03084 0.132073 0.038171 
-0.012204 0.045229 0.007795 
-0.005412 0.019357 0.001376 
-0.003391 0.01231 0.002528 
-0.018351 0.068354 -0.025873 
-0.013021 0.042701 -0.020984 
-0.005575 0.016816 -0.011147 
-0.002968 0.010938 -0.002798 
-0.018773 0.079018 0.073971 
-0.018419 0.06889 -0.022171 
-0.019033 0.078457 0.041574 
-0.018661 0.078961 0.079817 
-0.018641 0.072543 -0.001642 
-0.048881 0.23144 0.096661 
-0.046165 0.216035 0.099139 
-0.045221 0.21131 0.132553 
-0.045896 0.215153 0.143129 
-0.031416 0.135419 0.109034 
-0.011706 0.049154 0.049453 
-0.006293 0.021414 0.012386 
-0.004457 0.010947 0.008612 
-0.032849 0.139006 -0.043671 
-0.027067 0.109458 -0.036651 
-0.032013 0.134674 -0.036947 
-0.026735 0.107963 -0.030405 
-0.045741 0.213646 0.083845 
-0.040891 0.186273 0.072871 
-0.035485 0.15454 -0.008109 
-0.052645 0.253327 0.144748 
-0.037453 0.167326 0.131935 
-0.05292 0.254506 0.131926 
-0.04885 0.231266 0.076427 
-0.048994 0.231383 0.061572 
-0.037836 0.169497 0.125819 
-0.035082 0.152349 -0.004821 
-0.047183 0.22181 0.074714 
-0.04748 0.222795 0.060252 
-0.050616 0.241469 0.129301 
-0.050079 0.238744 0.133681 
-0.032593 0.142033 0.068 
-0.01195 0.046987 0.021944 
-0.005596 0.020375 0.00659 
-0.003611 0.011977 0.004936 
-0.01293 0.043389 -0.017264 
-0.005527 0.017053 -0.009987 
-0.002966 0.011083 -0.002208 
-0.028924 0.121192 0.009161 
-0.031285 0.134612 0.116486 
-0.012361 0.043728 -0.00625 
-0.005377 0.018313 -0.003846 
-0.007087 0.021767 0.01414 
-0.011487 0.048955 0.05338 
-0.004692 0.01081 0.009394 
-0.0032 0.011718 0.000233 
-0.035673 0.124104 -0.139794 
-0.03701 0.129665 -0.141902 
-0.024753 0.06774 -0.168618 
-0.023225 0.059005 -0.177687 
-0.028689 0.085805 -0.196825 
-0.03141 0.096686 -0.213813 
-0.030843 0.094084 -0.217292 
-0.03346 0.106448 -0.214084 
-0.034064 0.109199 -0.218002 
-0.02961 0.088156 -0.201578 
-0.030477 0.09268 -0.200859 
-0.036207 0.128013 -0.131144 
-0.037318 0.132156 -0.137171 
-0.038796 0.139207 -0.128108 
-0.039353 0.140063 -0.136233 
-0.033463 0.106328 -0.201969 
-0.034048 0.108857 -0.202654 
-0.020299 0.054925 -0.145343 
-0.029613 0.09037 -0.187681 
-0.014959 0.037385 -0.097306 
-0.013301 0.025478 -0.064702 
-0.009503 0.014335 -0.036478 
-0.006642 0.009557 -0.015476 
-0.032851 0.103782 -0.191575 
-0.034449 0.110897 -0.196104 
-0.02364 0.077232 -0.111765 
-0.015455 0.040804 -0.09077 
-0.013617 0.027604 -0.060341 
-0.009474 0.014497 -0.028202 
-0.00592 0.010208 -0.012419 
-0.01491 0.044573 -0.018557 
-0.007855 0.017894 -0.008898 
-0.003721 0.011342 -0.004259 
-0.037084 0.12869 -0.149509 
-0.036274 0.125158 -0.150225 
-0.04161 0.151514 -0.124789 
-0.039748 0.144599 -0.122681 
-0.029431 0.114675 -0.023104 
-0.028958 0.112675 -0.026471 
-0.026589 0.097998 -0.07073 
-0.019714 0.051615 -0.149297 
-0.036836 0.144271 -0.029502 
-0.019747 0.071882 -0.020911 
-0.0355 0.138807 -0.032333 
-0.019536 0.070375 -0.02526 
-0.036698 0.120506 -0.192715 
-0.039244 0.132936 -0.187524 
-0.039677 0.150879 -0.073172 
-0.038157 0.145724 -0.073919 
-0.03783 0.126887 -0.181441 
-0.03637 0.119185 -0.188131 
-0.017595 0.055364 -0.062291 
-0.014558 0.035622 -0.043139 
-0.009116 0.015828 -0.018497 
-0.004859 0.010692 -0.008086 
-0.014538 0.034296 -0.10326 
-0.014907 0.043853 -0.02112 
-0.008033 0.017723 -0.009754 
-0.012991 0.02349 -0.068741 
-0.009558 0.014101 -0.038404 
-0.007056 0.009583 -0.017459 
-0.003866 0.010951 -0.005015 
-0.026414 0.072784 -0.199121 
-0.02723 0.076884 -0.193377 
-0.024244 0.062617 -0.188643 
-0.025237 0.067926 -0.180226 
-0.02954 0.100587 -0.120697 
-0.02278 0.06281 -0.15633 
-0.021848 0.057522 -0.162481 
-0.040781 0.152024 -0.102891 
-0.039088 0.145985 -0.10218 
0.039458 0.177413 0.011122 
0.040759 0.184721 0.010326 
0.043673 0.201289 0.039928 
0.041863 0.191269 0.035168 
0.045436 0.21125 0.047145 
0.044196 0.204342 0.049287 
0.046568 0.21833 0.081658 
0.042502 0.195386 0.072592 
0.043058 0.197914 0.021946 
0.043877 0.202429 0.017535 
0.043941 0.202975 0.033587 
0.044964 0.208622 0.032134 
0.044001 0.203141 0.043789 
0.04069 0.184699 0.038644 
0.018829 0.075455 0.019863 
0.03084 0.132073 0.038171 
0.012204 0.045229 0.007795 
0.005412 0.019357 0.001376 
0.003391 0.01231 0.002528 
0.018351 0.068354 -0.025873 
0.013021 0.042701 -0.020984 
0.005575 0.016816 -0.011147 
0.002968 0.010938 -0.002798 
0.018773 0.079018 0.073971 
0.018419 0.06889 -0.022171 
0.019033 0.078457 0.041574 
0.018661 0.078961 0.079817 
0.018641 0.072543 -0.001642 
0.048881 0.23144 0.096661 
0.046165 0.216035 0.099139 
0.045221 0.21131 0.132553 
0.045896 0.215153 0.143129 
0.031416 0.135419 0.109034 
0.011706 0.049154 0.049453 
0.006293 0.021414 0.012386 
0.004457 0.010947 0.008612 
0.032849 0.139006 -0.043671 
0.027067 0.109458 -0.036651 
0.032013 0.134674 -0.036947 
0.026735 0.107963 -0.030405 
0.045741 0.213646 0.083845 
0.040891 0.186273 0.072871 
0.035485 0.15454 -0.008109 
0.052645 0.253327 0.144748 
0.037453 0.167326 0.131935 
0.05292 0.254506 0.131926 
0.04885 0.231266 0.076427 
0.048994 0.231383 0.061572 
0.037836 0.169497 0.125819 
0.035082 0.152349 -0.004821 
0.047183 0.22181 0.074714 
0.04748 0.222795 0.060252 
0.050616 0.241469 0.129301 
0.050079 0.238744 0.133681 
0.032593 0.142033 0.068 
0.01195 0.046987 0.021944 
0.005596 0.020375 0.00659 
0.003611 0.011977 0.004936 
0.01293 0.043389 -0.017264 
0.005527 0.017053 -0.009987 
0.002966 0.011083 -0.002208 
0.028924 0.121192 0.009161 
0.031285 0.134612 0.116486 
0.012361 0.043728 -0.00625 
0.005377 0.018313 -0.003846 
0.007087 0.021767 0.01414 
0.011487 0.048955 0.05338 
0.004692 0.01081 0.009394 
0.0032 0.011718 0.000233 
0.035506 0.124104 -0.139794 
0.036842 0.129665 -0.141902 
0.024586 0.06774 -0.168618 
0.023058 0.059005 -0.177687 
0.028521 0.085805 -0.196825 
0.031243 0.096686 -0.213813 
0.030675 0.094084 -0.217292 
0.033293 0.106448 -0.214084 
0.033897 0.109199 -0.218002 
0.029443 0.088156 -0.201578 
0.03031 0.09268 -0.200859 
0.036039 0.128013 -0.131144 
0.037151 0.132156 -0.137171 
0.038629 0.139207 -0.128108 
0.039185 0.140063 -0.136233 
0.033296 0.106328 -0.201969 
0.03388 0.108857 -0.202654 
0.020132 0.054925 -0.145343 
0.029445 0.09037 -0.187681 
0.014791 0.037385 -0.097306 
0.013133 0.025478 -0.064702 
0.009336 0.014335 -0.036478 
0.006474 0.009557 -0.015476 
0.032683 0.103782 -0.191575 
0.034281 0.110897 -0.196104 
0.023473 0.077232 -0.111765 
0.015287 0.040804 -0.09077 
0.013449 0.027604 -0.060341 
0.009306 0.014497 -0.028202 
0.005753 0.010208 -0.012419 
0.014742 0.044573 -0.018557 
0.007688 0.017894 -0.008898 
0.003553 0.011342 -0.004259 
0.036916 0.12869 -0.149509 
0.036107 0.125158 -0.150225 
0.041443 0.151514 -0.124789 
0.03958 0.144599 -0.122681 
0.029264 0.114675 -0.023104 
0.028791 0.112675 -0.026471 
0.026422 0.097998 -0.07073 
0.019546 0.051615 -0.149297 
0.036669 0.144271 -0.029502 
0.019579 0.071882 -0.020911 
0.035332 0.138807 -0.032333 
0.019368 0.070375 -0.02526 
0.03653 0.120506 -0.192715 
0.039077 0.132936 -0.187524 
0.039509 0.150879 -0.073172 
0.03799 0.145724 -0.073919 
0.037663 0.126887 -0.181441 
0.036202 0.119185 -0.188131 
0.017427 0.055364 -0.062291 
0.014391 0.035622 -0.043139 
0.008948 0.015828 -0.018497 
0.004691 0.010692 -0.008086 
0.01437 0.034296 -0.10326 
0.014739 0.043853 -0.02112 
0.007865 0.017723 -0.009754 
0.012824 0.02349 -0.068741 
0.009391 0.014101 -0.038404 
0.006889 0.009583 -0.017459 
0.003698 0.010951 -0.005015 
0.026246 0.072784 -0.199121 
0.027062 0.076884 -0.193377 
0.024077 0.062617 -0.188643 
0.025069 0.067926 -0.180226 
0.029373 0.100587 -0.120697 
0.022613 0.06281 -0.15633 
0.021681 0.057522 -0.162481 
0.040614 0.152024 -0.102891 
0.03892 0.145985 -0.10218 
0.035506 0.124104 -0.139794 
0.036842 0.129665 -0.141902 
0.024586 0.06774 -0.168618 
0.023058 0.059005 -0.177687 
0.028521 0.085805 -0.196825 
0.031243 0.096686 -0.213813 
0.030675 0.094084 -0.217292 
0.033293 0.106448 -0.214084 
0.033897 0.109199 -0.218002 
0.029443 0.088156 -0.201578 
0.03031 0.09268 -0.200859 
0.036039 0.128013 -0.131144 
0.037151 0.132156 -0.137171 
0.038629 0.139207 -0.128108 
0.039185 0.140063 -0.136233 
0.033296 0.106328 -0.201969 
0.03388 0.108858 -0.202654 
0.020132 0.054925 -0.145343 
0.029445 0.09037 -0.187681 
0.014791 0.037385 -0.097306 
0.013133 0.025478 -0.064702 
0.009336 0.014335 -0.036478 
0.006474 0.009557 -0.015476 
0.032683 0.103783 -0.191575 
0.034281 0.110897 -0.196104 
0.023473 0.077232 -0.111765 
0.015287 0.040804 -0.09077 
0.013449 0.027604 -0.060341 
0.009306 0.014497 -0.028202 
0.005753 0.010208 -0.012419 
0.014742 0.044573 -0.018557 
0.007688 0.017894 -0.008898 
0.003553 0.011342 -0.004259 
0.036916 0.12869 -0.149509 
0.036107 0.125158 -0.150225 
0.041443 0.151514 -0.124789 
0.03958 0.144599 -0.122681 
0.029264 0.114675 -0.023104 
0.028791 0.112675 -0.026471 
0.026422 0.097998 -0.07073 
0.019546 0.051615 -0.149297 
0.036669 0.144271 -0.029502 
0.019579 0.071882 -0.020911 
0.035332 0.138807 -0.032333 
0.019368 0.070375 -0.02526 
0.03653 0.120506 -0.192715 
0.039077 0.132936 -0.187524 
0.039509 0.150879 -0.073172 
0.03799 0.145724 -0.073919 
0.037663 0.126887 -0.181441 
0.036202 0.119185 -0.188131 
0.017427 0.055364 -0.062291 
0.014391 0.035622 -0.043139 
0.008948 0.015828 -0.018497 
0.004691 0.010692 -0.008086 
0.01437 0.034296 -0.10326 
0.014739 0.043853 -0.02112 
0.007865 0.017723 -0.009754 
0.012824 0.02349 -0.068741 
0.009391 0.014101 -0.038404 
0.006889 0.009583 -0.017459 
0.003698 0.010951 -0.005015 
0.026246 0.072784 -0.199121 
0.027062 0.076884 -0.193377 
0.024077 0.062617 -0.188643 
0.025069 0.067926 -0.180226 
0.029373 0.100587 -0.120697 
0.022613 0.06281 -0.15633 
0.021681 0.057522 -0.162481 
0.040614 0.152024 -0.102891 
0.03892 0.145985 -0.10218 
-0.035673 0.124104 -0.139794 
-0.03701 0.129665 -0.141902 
-0.024753 0.06774 -0.168618 
-0.023225 0.059005 -0.177687 
-0.028689 0.085805 -0.196825 
-0.03141 0.096686 -0.213813 
-0.030843 0.094084 -0.217292 
-0.03346 0.106448 -0.214084 
-0.034064 0.109199 -0.218002 
-0.02961 0.088156 -0.201578 
-0.030477 0.09268 -0.200859 
-0.036207 0.128013 -0.131144 
-0.037318 0.132156 -0.137171 
-0.038796 0.139207 -0.128108 
-0.039353 0.140063 -0.136233 
-0.033463 0.106328 -0.201969 
-0.034048 0.108858 -0.202654 
-0.020299 0.054925 -0.145343 
-0.029613 0.09037 -0.187681 
-0.014959 0.037385 -0.097306 
-0.013301 0.025478 -0.064702 
-0.009503 0.014335 -0.036478 
-0.006642 0.009557 -0.015476 
-0.032851 0.103783 -0.191575 
-0.034449 0.110897 -0.196104 
-0.02364 0.077232 -0.111765 
-0.015455 0.040804 -0.09077 
-0.013617 0.027604 -0.060341 
-0.009474 0.014497 -0.028202 
-0.00592 0.010208 -0.012419 
-0.01491 0.044573 -0.018557 
-0.007855 0.017894 -0.008898 
-0.003721 0.011342 -0.004259 
-0.037084 0.12869 -0.149509 
-0.036274 0.125158 -0.150225 
-0.04161 0.151514 -0.124789 
-0.039748 0.144599 -0.122681 
-0.029431 0.114675 -0.023104 
-0.028958 0.112675 -0.026471 
-0.026589 0.097998 -0.07073 
-0.019714 0.051615 -0.149297 
-0.036836 0.144271 -0.029502 
-0.019747 0.071882 -0.020911 
-0.0355 0.138807 -0.032333 
-0.019536 0.070375 -0.02526 
-0.036698 0.120506 -0.192715 
-0.039244 0.132936 -0.187524 
-0.039677 0.150879 -0.073172 
-0.038157 0.145724 -0.073919 
-0.03783 0.126887 -0.181441 
-0.03637 0.119185 -0.188131 
-0.017595 0.055364 -0.062291 
-0.014558 0.035622 -0.043139 
-0.009116 0.015828 -0.018497 
-0.004859 0.010692 -0.008086 
-0.014538 0.034296 -0.10326 
-0.014907 0.043853 -0.02112 
-0.008033 0.017723 -0.009754 
-0.012991 0.02349 -0.068741 
-0.009558 0.014101 -0.038404 
-0.007056 0.009583 -0.017459 
-0.003866 0.010951 -0.005015 
-0.026414 0.072784 -0.199121 
-0.02723 0.076884 -0.193377 
-0.024244 0.062617 -0.188643 
-0.025237 0.067926 -0.180226 
-0.02954 0.100587 -0.120697 
-0.02278 0.06281 -0.15633 
-0.021848 0.057522 -0.162481 
-0.040781 0.152024 -0.102891 
-0.039088 0.145985 -0.10218 
0.039458 0.177413 0.011122 
0.040759 0.184721 0.010326 
0.043673 0.201289 0.039928 
0.041863 0.191269 0.035168 
0.045436 0.21125 0.047145 
0.044196 0.204342 0.049287 
0.046568 0.21833 0.081658 
0.042502 0.195386 0.072592 
0.043058 0.197914 0.021946 
0.043877 0.202429 0.017535 
0.043941 0.202975 0.033587 
0.044964 0.208622 0.032134 
0.044001 0.203141 0.043789 
0.04069 0.184699 0.038644 
0.018829 0.075455 0.019863 
0.03084 0.132073 0.038171 
0.012204 0.045229 0.007795 
0.005412 0.019357 0.001376 
0.003391 0.01231 0.002528 
0.018351 0.068354 -0.025873 
0.013021 0.042701 -0.020984 
0.005575 0.016816 -0.011147 
0.002968 0.010938 -0.002798 
0.018773 0.079018 0.073971 
0.018419 0.06889 -0.022171 
0.019033 0.078457 0.041574 
0.018661 0.078961 0.079817 
0.018641 0.072543 -0.001642 
0.048881 0.23144 0.096661 
0.046165 0.216035 0.099139 
0.045221 0.21131 0.132553 
0.045896 0.215153 0.143129 
0.031416 0.135419 0.109034 
0.011706 0.049154 0.049453 
0.006293 0.021414 0.012386 
0.004457 0.010947 0.008612 
0.032849 0.139006 -0.043671 
0.027067 0.109458 -0.036651 
0.032013 0.134674 -0.036947 
0.026736 0.107963 -0.030405 
0.045741 0.213646 0.083845 
0.040891 0.186273 0.072871 
0.035485 0.15454 -0.008109 
0.052645 0.253327 0.144748 
0.037453 0.167326 0.131935 
0.05292 0.254506 0.131926 
0.04885 0.231266 0.076427 
0.048994 0.231383 0.061572 
0.037836 0.169497 0.125819 
0.035082 0.152349 -0.004821 
0.047183 0.22181 0.074714 
0.04748 0.222795 0.060252 
0.050616 0.241469 0.129301 
0.050079 0.238744 0.133681 
0.032593 0.142033 0.068 
0.01195 0.046987 0.021944 
0.005596 0.020375 0.00659 
0.003611 0.011977 0.004936 
0.01293 0.043389 -0.017264 
0.005527 0.017053 -0.009987 
0.002966 0.011083 -0.002208 
0.028924 0.121192 0.009161 
0.031285 0.134612 0.116486 
0.012361 0.043728 -0.00625 
0.005377 0.018313 -0.003846 
0.007087 0.021767 0.01414 
0.011487 0.048955 0.05338 
0.004692 0.01081 0.009394 
0.0032 0.011718 0.000233 
-0.039458 0.177413 0.011122 
-0.040759 0.184721 0.010326 
-0.043673 0.201289 0.039928 
-0.041863 0.191269 0.035168 
-0.045436 0.21125 0.047145 
-0.044196 0.204342 0.049287 
-0.046568 0.21833 0.081658 
-0.042502 0.195386 0.072592 
-0.043058 0.197914 0.021946 
-0.043877 0.202429 0.017535 
-0.043941 0.202975 0.033587 
-0.044964 0.208622 0.032134 
-0.044001 0.203141 0.043789 
-0.04069 0.184699 0.038644 
-0.018829 0.075455 0.019863 
-0.03084 0.132073 0.038171 
-0.012204 0.045229 0.007795 
-0.005412 0.019357 0.001376 
-0.003391 0.01231 0.002528 
-0.018351 0.068354 -0.025873 
-0.013021 0.042701 -0.020984 
-0.005575 0.016816 -0.011147 
-0.002968 0.010938 -0.002798 
-0.018773 0.079018 0.073971 
-0.018419 0.06889 -0.022171 
-0.019033 0.078457 0.041574 
-0.018661 0.078961 0.079817 
-0.018641 0.072543 -0.001642 
-0.048881 0.23144 0.096661 
-0.046165 0.216035 0.099139 
-0.045221 0.21131 0.132553 
-0.045896 0.215153 0.143129 
-0.031416 0.135419 0.109034 
-0.011706 0.049154 0.049453 
-0.006293 0.021414 0.012386 
-0.004457 0.010947 0.008612 
-0.032849 0.139006 -0.043671 
-0.027067 0.109458 -0.036651 
-0.032013 0.134674 -0.036947 
-0.026736 0.107963 -0.030405 
-0.045741 0.213646 0.083845 
-0.040891 0.186273 0.072871 
-0.035485 0.15454 -0.008109 
-0.052645 0.253327 0.144748 
-0.037453 0.167326 0.131935 
-0.05292 0.254506 0.131926 
-0.04885 0.231266 0.076427 
-0.048994 0.231383 0.061572 
-0.037836 0.169497 0.125819 
-0.035082 0.152349 -0.004821 
-0.047183 0.22181 0.074714 
-0.04748 0.222795 0.060252 
-0.050616 0.241469 0.129301 
-0.050079 0.238744 0.133681 
-0.032593 0.142033 0.068 
-0.01195 0.046987 0.021944 
-0.005596 0.020375 0.00659 
-0.003611 0.011977 0.004936 
-0.01293 0.043389 -0.017264 
-0.005527 0.017053 -0.009987 
-0.002966 0.011083 -0.002208 
-0.028924 0.121192 0.009161 
-0.031285 0.134612 0.116486 
-0.012361 0.043728 -0.00625 
-0.005377 0.018313 -0.003846 
-0.007087 0.021767 0.01414 
-0.011487 0.048955 0.05338 
-0.004692 0.01081 0.009394 
-0.0032 0.011718 0.000233 
3 244 252 254 
3 244 254 247 
3 293 244 247 
3 293 247 257 
3 252 244 245 
3 252 245 253 
3 244 293 286 
3 244 286 245 
3 247 254 255 
3 247 255 246 
3 257 247 246 
3 257 246 256 
3 249 257 256 
3 249 256 248 
3 295 249 248 
3 295 248 291 
3 251 285 257 
3 251 257 249 
3 294 251 249 
3 294 249 295 
3 250 284 285 
3 250 285 251 
3 290 250 251 
3 290 251 294 
3 255 254 252 
3 255 252 253 
3 259 298 269 
3 259 269 258 
3 305 259 258 
3 305 258 271 
3 258 269 299 
3 258 299 260 
3 271 258 260 
3 271 260 307 
3 257 285 298 
3 257 298 259 
3 293 257 259 
3 293 259 305 
3 261 300 301 
3 261 301 262 
3 308 261 262 
3 308 262 312 
3 261 308 307 
3 261 307 260 
3 300 261 260 
3 300 260 299 
3 281 283 268 
3 281 268 263 
3 263 268 302 
3 263 302 264 
3 304 266 265 
3 304 265 303 
3 303 265 264 
3 303 264 302 
3 269 298 276 
3 269 276 267 
3 299 269 267 
3 299 267 277 
3 267 276 306 
3 267 306 270 
3 277 267 270 
3 277 270 310 
3 268 283 305 
3 268 305 271 
3 302 268 271 
3 302 271 307 
3 273 285 284 
3 273 284 272 
3 296 273 272 
3 296 272 289 
3 274 297 287 
3 274 287 275 
3 292 274 275 
3 292 275 288 
3 273 296 297 
3 273 297 274 
3 285 273 274 
3 285 274 292 
3 292 276 298 
3 292 298 285 
3 276 292 288 
3 276 288 306 
3 282 283 281 
3 282 281 280 
3 283 282 293 
3 283 293 305 
3 278 309 311 
3 278 311 279 
3 300 278 279 
3 300 279 301 
3 278 300 299 
3 278 299 277 
3 309 278 277 
3 309 277 310 
3 297 296 289 
3 297 289 287 
3 294 295 291 
3 294 291 290 
3 282 280 286 
3 282 286 293 
3 312 304 303 
3 312 303 308 
3 308 303 302 
3 308 302 307 
3 331 313 324 
3 331 324 315 
3 347 313 331 
3 347 331 336 
3 324 313 314 
3 324 314 325 
3 313 347 346 
3 313 346 314 
3 336 331 323 
3 336 323 328 
3 328 323 318 
3 328 318 320 
3 323 322 319 
3 323 319 318 
3 321 320 318 
3 321 318 319 
3 329 328 320 
3 329 320 321 
3 324 325 327 
3 324 327 326 
3 317 322 323 
3 317 323 331 
3 337 336 328 
3 337 328 329 
3 363 362 347 
3 363 347 336 
3 332 339 340 
3 332 340 333 
3 368 332 333 
3 368 333 371 
3 330 338 339 
3 330 339 332 
3 353 330 332 
3 353 332 368 
3 335 373 372 
3 335 372 334 
3 342 335 334 
3 342 334 341 
3 334 372 371 
3 334 371 333 
3 341 334 333 
3 341 333 340 
3 339 364 365 
3 339 365 340 
3 379 361 352 
3 379 352 338 
3 338 352 364 
3 338 364 339 
3 367 342 341 
3 367 341 366 
3 366 341 340 
3 366 340 365 
3 357 355 343 
3 357 343 369 
3 345 374 370 
3 345 370 344 
3 344 370 369 
3 344 369 343 
3 327 348 349 
3 327 349 326 
3 359 346 347 
3 359 347 362 
3 365 364 357 
3 365 357 369 
3 351 356 354 
3 351 354 350 
3 357 351 350 
3 357 350 355 
3 352 361 356 
3 352 356 351 
3 364 352 351 
3 364 351 357 
3 354 356 361 
3 354 361 360 
3 363 336 337 
3 363 337 358 
3 362 363 358 
3 362 358 359 
3 374 367 366 
3 374 366 370 
3 370 366 365 
3 370 365 369 
3 317 331 376 
3 317 376 375 
3 316 377 378 
3 316 378 315 
3 377 375 376 
3 377 376 378 
3 315 378 376 
3 315 376 331 
3 324 379 380 
3 324 380 315 
3 379 338 330 
3 379 330 380 
3 315 380 381 
3 315 381 316 
3 380 330 353 
3 380 353 381 
3 348 382 383 
3 348 383 349 
3 382 360 361 
3 382 361 383 
3 324 383 361 
3 324 361 379 
3 324 326 349 
3 324 349 383 
3 384 392 394 
3 384 394 387 
3 433 384 387 
3 433 387 397 
3 392 384 385 
3 392 385 393 
3 384 433 426 
3 384 426 385 
3 387 394 395 
3 387 395 386 
3 397 387 386 
3 397 386 396 
3 389 397 396 
3 389 396 388 
3 435 389 388 
3 435 388 431 
3 391 425 397 
3 391 397 389 
3 434 391 389 
3 434 389 435 
3 390 424 425 
3 390 425 391 
3 430 390 391 
3 430 391 434 
3 395 394 392 
3 395 392 393 
3 399 438 409 
3 399 409 398 
3 445 399 398 
3 445 398 411 
3 398 409 439 
3 398 439 400 
3 411 398 400 
3 411 400 447 
3 397 425 438 
3 397 438 399 
3 433 397 399 
3 433 399 445 
3 401 440 441 
3 401 441 402 
3 448 401 402 
3 448 402 452 
3 401 448 447 
3 401 447 400 
3 440 401 400 
3 440 400 439 
3 421 423 408 
3 421 408 403 
3 403 408 442 
3 403 442 404 
3 444 406 405 
3 444 405 443 
3 443 405 404 
3 443 404 442 
3 409 438 416 
3 409 416 407 
3 439 409 407 
3 439 407 417 
3 407 416 446 
3 407 446 410 
3 417 407 410 
3 417 410 450 
3 408 423 445 
3 408 445 411 
3 442 408 411 
3 442 411 447 
3 413 425 424 
3 413 424 412 
3 436 413 412 
3 436 412 429 
3 414 437 427 
3 414 427 415 
3 432 414 415 
3 432 415 428 
3 413 436 437 
3 413 437 414 
3 425 413 414 
3 425 414 432 
3 432 416 438 
3 432 438 425 
3 416 432 428 
3 416 428 446 
3 422 423 421 
3 422 421 420 
3 423 422 433 
3 423 433 445 
3 418 449 451 
3 418 451 419 
3 440 418 419 
3 440 419 441 
3 418 440 439 
3 418 439 417 
3 449 418 417 
3 449 417 450 
3 437 436 429 
3 437 429 427 
3 434 435 431 
3 434 431 430 
3 422 420 426 
3 422 426 433 
3 452 444 443 
3 452 443 448 
3 448 443 442 
3 448 442 447 
3 471 453 464 
3 471 464 455 
3 487 453 471 
3 487 471 476 
3 464 453 454 
3 464 454 465 
3 453 487 486 
3 453 486 454 
3 476 471 463 
3 476 463 468 
3 468 463 458 
3 468 458 460 
3 463 462 459 
3 463 459 458 
3 461 460 458 
3 461 458 459 
3 469 468 460 
3 469 460 461 
3 464 465 467 
3 464 467 466 
3 457 462 463 
3 457 463 471 
3 477 476 468 
3 477 468 469 
3 503 502 487 
3 503 487 476 
3 472 479 480 
3 472 480 473 
3 508 472 473 
3 508 473 511 
3 470 478 479 
3 470 479 472 
3 493 470 472 
3 493 472 508 
3 475 513 512 
3 475 512 474 
3 482 475 474 
3 482 474 481 
3 474 512 511 
3 474 511 473 
3 481 474 473 
3 481 473 480 
3 479 504 505 
3 479 505 480 
3 519 501 492 
3 519 492 478 
3 478 492 504 
3 478 504 479 
3 507 482 481 
3 507 481 506 
3 506 481 480 
3 506 480 505 
3 497 495 483 
3 497 483 509 
3 485 514 510 
3 485 510 484 
3 484 510 509 
3 484 509 483 
3 467 488 489 
3 467 489 466 
3 499 486 487 
3 499 487 502 
3 505 504 497 
3 505 497 509 
3 491 496 494 
3 491 494 490 
3 497 491 490 
3 497 490 495 
3 492 501 496 
3 492 496 491 
3 504 492 491 
3 504 491 497 
3 494 496 501 
3 494 501 500 
3 503 476 477 
3 503 477 498 
3 502 503 498 
3 502 498 499 
3 514 507 506 
3 514 506 510 
3 510 506 505 
3 510 505 509 
3 457 471 516 
3 457 516 515 
3 456 517 518 
3 456 518 455 
3 517 515 516 
3 517 516 518 
3 455 518 516 
3 455 516 471 
3 464 519 520 
3 464 520 455 
3 519 478 470 
3 519 470 520 
3 455 520 521 
3 455 521 456 
3 520 470 493 
3 520 493 521 
3 488 522 523 
3 488 523 489 
3 522 500 501 
3 522 501 523 
3 464 523 501 
3 464 501 519 
3 464 466 489 
3 464 489 523 
3 542 524 535 
3 542 535 526 
3 558 524 542 
3 558 542 547 
3 535 524 525 
3 535 525 536 
3 524 558 557 
3 524 557 525 
3 547 542 534 
3 547 534 539 
3 539 534 529 
3 539 529 531 
3 534 533 530 
3 534 530 529 
3 532 531 529 
3 532 529 530 
3 540 539 531 
3 540 531 532 
3 535 536 538 
3 535 538 537 
3 528 533 534 
3 528 534 542 
3 548 547 539 
3 548 539 540 
3 574 573 558 
3 574 558 547 
3 543 550 551 
3 543 551 544 
3 579 543 544 
3 579 544 582 
3 541 549 550 
3 541 550 543 
3 564 541 543 
3 564 543 579 
3 546 584 583 
3 546 583 545 
3 553 546 545 
3 553 545 552 
3 545 583 582 
3 545 582 544 
3 552 545 544 
3 552 544 551 
3 550 575 576 
3 550 576 551 
3 590 572 563 
3 590 563 549 
3 549 563 575 
3 549 575 550 
3 578 553 552 
3 578 552 577 
3 577 552 551 
3 577 551 576 
3 568 566 554 
3 568 554 580 
3 556 585 581 
3 556 581 555 
3 555 581 580 
3 555 580 554 
3 538 559 560 
3 538 560 537 
3 570 557 558 
3 570 558 573 
3 576 575 568 
3 576 568 580 
3 562 567 565 
3 562 565 561 
3 568 562 561 
3 568 561 566 
3 563 572 567 
3 563 567 562 
3 575 563 562 
3 575 562 568 
3 565 567 572 
3 565 572 571 
3 574 547 548 
3 574 548 569 
3 573 574 569 
3 573 569 570 
3 585 578 577 
3 585 577 581 
3 581 577 576 
3 581 576 580 
3 528 542 587 
3 528 587 586 
3 527 588 589 
3 527 589 526 
3 588 586 587 
3 588 587 589 
3 526 589 587 
3 526 587 542 
3 535 590 591 
3 535 591 526 
3 590 549 541 
3 590 541 591 
3 526 591 592 
3 526 592 527 
3 591 541 564 
3 591 564 592 
3 559 593 594 
3 559 594 560 
3 593 571 572 
3 593 572 594 
3 535 594 572 
3 535 572 590 
3 535 537 560 
3 535 560 594 
3 613 595 606 
3 613 606 597 
3 629 595 613 
3 629 613 618 
3 606 595 596 
3 606 596 607 
3 595 629 628 
3 595 628 596 
3 618 613 605 
3 618 605 610 
3 610 605 600 
3 610 600 602 
3 605 604 601 
3 605 601 600 
3 603 602 600 
3 603 600 601 
3 611 610 602 
3 611 602 603 
3 606 607 609 
3 606 609 608 
3 599 604 605 
3 599 605 613 
3 619 618 610 
3 619 610 611 
3 645 644 629 
3 645 629 618 
3 614 621 622 
3 614 622 615 
3 650 614 615 
3 650 615 653 
3 612 620 621 
3 612 621 614 
3 635 612 614 
3 635 614 650 
3 617 655 654 
3 617 654 616 
3 624 617 616 
3 624 616 623 
3 616 654 653 
3 616 653 615 
3 623 616 615 
3 623 615 622 
3 621 646 647 
3 621 647 622 
3 661 643 634 
3 661 634 620 
3 620 634 646 
3 620 646 621 
3 649 624 623 
3 649 623 648 
3 648 623 622 
3 648 622 647 
3 639 637 625 
3 639 625 651 
3 627 656 652 
3 627 652 626 
3 626 652 651 
3 626 651 625 
3 609 630 631 
3 609 631 608 
3 641 628 629 
3 641 629 644 
3 647 646 639 
3 647 639 651 
3 633 638 636 
3 633 636 632 
3 639 633 632 
3 639 632 637 
3 634 643 638 
3 634 638 633 
3 646 634 633 
3 646 633 639 
3 636 638 643 
3 636 643 642 
3 645 618 619 
3 645 619 640 
3 644 645 640 
3 644 640 641 
3 656 649 648 
3 656 648 652 
3 652 648 647 
3 652 647 651 
3 599 613 658 
3 599 658 657 
3 598 659 660 
3 598 660 597 
3 659 657 658 
3 659 658 660 
3 597 660 658 
3 597 658 613 
3 606 661 662 
3 606 662 597 
3 661 620 612 
3 661 612 662 
3 597 662 663 
3 597 663 598 
3 662 612 635 
3 662 635 663 
3 630 664 665 
3 630 665 631 
3 664 642 643 
3 664 643 665 
3 606 665 643 
3 606 643 661 
3 606 608 631 
3 606 631 665 
3 666 674 676 
3 666 676 669 
3 715 666 669 
3 715 669 679 
3 674 666 667 
3 674 667 675 
3 666 715 708 
3 666 708 667 
3 669 676 677 
3 669 677 668 
3 679 669 668 
3 679 668 678 
3 671 679 678 
3 671 678 670 
3 717 671 670 
3 717 670 713 
3 673 707 679 
3 673 679 671 
3 716 673 671 
3 716 671 717 
3 672 706 707 
3 672 707 673 
3 712 672 673 
3 712 673 716 
3 677 676 674 
3 677 674 675 
3 681 720 691 
3 681 691 680 
3 727 681 680 
3 727 680 693 
3 680 691 721 
3 680 721 682 
3 693 680 682 
3 693 682 729 
3 679 707 720 
3 679 720 681 
3 715 679 681 
3 715 681 727 
3 683 722 723 
3 683 723 684 
3 730 683 684 
3 730 684 734 
3 683 730 729 
3 683 729 682 
3 722 683 682 
3 722 682 721 
3 703 705 690 
3 703 690 685 
3 685 690 724 
3 685 724 686 
3 726 688 687 
3 726 687 725 
3 725 687 686 
3 725 686 724 
3 691 720 698 
3 691 698 689 
3 721 691 689 
3 721 689 699 
3 689 698 728 
3 689 728 692 
3 699 689 692 
3 699 692 732 
3 690 705 727 
3 690 727 693 
3 724 690 693 
3 724 693 729 
3 695 707 706 
3 695 706 694 
3 718 695 694 
3 718 694 711 
3 696 719 709 
3 696 709 697 
3 714 696 697 
3 714 697 710 
3 695 718 719 
3 695 719 696 
3 707 695 696 
3 707 696 714 
3 714 698 720 
3 714 720 707 
3 698 714 710 
3 698 710 728 
3 704 705 703 
3 704 703 702 
3 705 704 715 
3 705 715 727 
3 700 731 733 
3 700 733 701 
3 722 700 701 
3 722 701 723 
3 700 722 721 
3 700 721 699 
3 731 700 699 
3 731 699 732 
3 719 718 711 
3 719 711 709 
3 716 717 713 
3 716 713 712 
3 704 702 708 
3 704 708 715 
3 734 726 725 
3 734 725 730 
3 730 725 724 
3 730 724 729 
3 735 743 745 
3 735 745 738 
3 784 735 738 
3 784 738 748 
3 743 735 736 
3 743 736 744 
3 735 784 777 
3 735 777 736 
3 738 745 746 
3 738 746 737 
3 748 738 737 
3 748 737 747 
3 740 748 747 
3 740 747 739 
3 786 740 739 
3 786 739 782 
3 742 776 748 
3 742 748 740 
3 785 742 740 
3 785 740 786 
3 741 775 776 
3 741 776 742 
3 781 741 742 
3 781 742 785 
3 746 745 743 
3 746 743 744 
3 750 789 760 
3 750 760 749 
3 796 750 749 
3 796 749 762 
3 749 760 790 
3 749 790 751 
3 762 749 751 
3 762 751 798 
3 748 776 789 
3 748 789 750 
3 784 748 750 
3 784 750 796 
3 752 791 792 
3 752 792 753 
3 799 752 753 
3 799 753 803 
3 752 799 798 
3 752 798 751 
3 791 752 751 
3 791 751 790 
3 772 774 759 
3 772 759 754 
3 754 759 793 
3 754 793 755 
3 795 757 756 
3 795 756 794 
3 794 756 755 
3 794 755 793 
3 760 789 767 
3 760 767 758 
3 790 760 758 
3 790 758 768 
3 758 767 797 
3 758 797 761 
3 768 758 761 
3 768 761 801 
3 759 774 796 
3 759 796 762 
3 793 759 762 
3 793 762 798 
3 764 776 775 
3 764 775 763 
3 787 764 763 
3 787 763 780 
3 765 788 778 
3 765 778 766 
3 783 765 766 
3 783 766 779 
3 764 787 788 
3 764 788 765 
3 776 764 765 
3 776 765 783 
3 783 767 789 
3 783 789 776 
3 767 783 779 
3 767 779 797 
3 773 774 772 
3 773 772 771 
3 774 773 784 
3 774 784 796 
3 769 800 802 
3 769 802 770 
3 791 769 770 
3 791 770 792 
3 769 791 790 
3 769 790 768 
3 800 769 768 
3 800 768 801 
3 788 787 780 
3 788 780 778 
3 785 786 782 
3 785 782 781 
3 773 771 777 
3 773 777 784 
3 803 795 794 
3 803 794 799 
3 799 794 793 
3 799 793 798 
